<?xml version="1.0" standalone="no"?>
<!DOCTYPE svg PUBLIC "-//W3C//DTD SVG 20010904//EN"
 "http://www.w3.org/TR/2001/REC-SVG-20010904/DTD/svg10.dtd">
<svg version="1.0" xmlns="http://www.w3.org/2000/svg"
 width="1609.000000pt" height="977.000000pt" viewBox="0 0 1609.000000 977.000000"
 preserveAspectRatio="xMidYMid meet">

<g transform="translate(0.000000,977.000000) scale(0.100000,-0.100000)"
fill="#000000" stroke="none">
<path d="M0 4885 l0 -4885 8045 0 8045 0 0 4885 0 4885 -8045 0 -8045 0 0
-4885z m8221 4135 c75 -118 196 -309 269 -425 347 -549 829 -1325 1190 -1920
117 -192 328 -539 470 -770 141 -231 355 -582 475 -780 120 -198 246 -405 280
-460 65 -105 186 -304 497 -815 102 -168 222 -365 267 -438 44 -73 81 -135 81
-137 0 -3 -1672 -5 -3715 -5 -2043 0 -3715 2 -3715 5 0 3 30 54 67 113 36 59
110 179 163 267 221 365 548 901 815 1335 308 499 388 628 609 980 115 184
316 506 446 715 687 1103 1190 1905 1403 2237 45 70 115 180 156 243 73 114
74 115 90 93 9 -13 77 -120 152 -238z m-7229 -6403 c322 -419 413 -536 418
-537 6 0 110 129 316 390 76 96 141 177 144 180 3 3 30 35 60 73 l54 67 165
-2 166 -3 3 -628 2 -627 -177 2 -178 3 4 368 c2 202 2 367 -1 367 -2 0 -31
-34 -64 -76 -32 -42 -95 -122 -139 -178 -44 -56 -118 -152 -165 -214 l-85
-112 -111 0 -111 0 -149 198 c-82 108 -180 239 -219 290 l-70 93 -2 -58 c-2
-32 -4 -197 -5 -368 l-3 -310 -167 -3 -168 -2 -1 587 c-1 566 -1 665 0 671 1
1 79 2 175 2 l175 0 133 -173z m4687 158 c175 -37 280 -145 311 -320 38 -216
-93 -427 -286 -460 -80 -14 -81 -8 24 -127 53 -61 139 -160 190 -220 l92 -108
-219 0 -218 0 -69 83 c-38 45 -118 144 -179 220 l-110 137 -182 0 -183 0 0
-220 0 -220 -180 0 -180 0 0 365 0 365 551 2 551 3 24 28 c34 40 34 118 -1
152 l-24 25 -533 2 c-293 0 -540 1 -548 2 -12 1 -15 25 -18 141 -1 76 0 145 2
152 8 20 1087 19 1185 -2z m859 -248 l2 -258 123 103 c67 57 164 140 216 183
51 44 135 115 185 157 l91 78 243 -1 c133 0 242 -3 242 -6 0 -3 -17 -20 -37
-38 -58 -49 -518 -428 -605 -498 -42 -34 -77 -65 -77 -68 -1 -4 25 -28 56 -55
32 -27 137 -119 233 -204 97 -85 233 -204 303 -265 l126 -110 -245 -3 -246 -2
-36 31 c-37 32 -103 91 -301 269 -59 52 -144 128 -189 169 l-82 73 0 -248 c0
-137 -3 -259 -6 -271 -6 -23 -8 -23 -180 -23 l-174 0 0 625 0 625 178 -2 177
-3 3 -258z m2542 260 c0 -1 -28 -70 -63 -152 l-62 -150 -396 -3 -397 -2 -7
-75 c-3 -41 -4 -79 0 -85 4 -7 138 -10 396 -10 l389 0 0 -140 0 -140 -390 0
-390 0 -2 -57 c-2 -86 0 -96 23 -115 20 -17 57 -18 460 -18 l439 0 0 -150 0
-150 -505 0 c-490 0 -506 1 -561 21 -73 27 -136 85 -171 158 l-28 56 -3 494
c-2 272 -1 500 2 508 4 11 119 13 636 13 346 0 630 -1 630 -3z m1450 -152 l0
-155 -245 -2 -246 -3 -5 -470 -5 -470 -180 -3 -179 -2 0 475 0 475 -235 0
-235 0 0 148 c0 82 3 152 7 155 3 4 303 7 665 7 l658 0 0 -155z m-6804 -218
c222 -333 433 -653 541 -819 24 -36 43 -69 43 -72 0 -3 -90 -6 -200 -6 l-200
0 -185 283 c-102 155 -222 338 -266 406 l-80 124 -48 -75 c-27 -41 -96 -147
-155 -235 -58 -89 -109 -168 -112 -177 -6 -14 17 -16 227 -16 l234 0 98 -148
c53 -82 97 -152 97 -155 0 -4 -283 -7 -630 -7 -346 0 -630 2 -630 5 0 14 38
77 137 228 58 89 196 302 306 472 110 171 236 365 279 433 l80 122 112 0 111
-1 241 -362z m1454 -1333 c19 -11 48 -39 65 -63 27 -38 30 -51 30 -116 0 -65
-3 -78 -30 -117 -44 -61 -95 -88 -173 -88 -42 0 -75 6 -100 19 -154 79 -152
294 3 374 43 23 160 18 205 -9z m2943 -1 c4 -2 7 -15 7 -27 0 -22 -2 -23 -45
-13 -57 13 -116 -3 -139 -38 -25 -37 -31 -104 -13 -146 25 -60 103 -83 182
-53 13 5 16 2 13 -17 -3 -26 -29 -36 -98 -38 -57 -1 -108 24 -137 68 -28 41
-31 135 -7 186 15 33 71 78 110 88 20 5 113 -2 127 -10z m-6759 -151 c32 -86
61 -163 64 -170 3 -10 -3 -13 -24 -10 -24 2 -31 11 -45 48 l-17 45 -69 3 -70
3 -12 -40 c-6 -22 -17 -44 -24 -48 -15 -9 -47 -12 -47 -3 0 7 119 310 127 323
2 4 16 7 31 7 26 0 30 -8 86 -158z m445 147 c31 -11 61 -52 61 -84 0 -63 -63
-115 -139 -115 l-40 0 -3 -62 c-3 -55 -5 -63 -23 -63 -19 0 -20 8 -23 168 l-2
167 68 0 c38 0 83 -5 101 -11z m460 -4 c50 -25 55 -93 11 -137 -27 -27 -29
-32 -17 -47 22 -26 75 -130 69 -136 -3 -3 -15 -5 -27 -5 -16 0 -28 14 -51 61
-31 65 -55 89 -91 89 -21 0 -22 -5 -25 -72 -3 -67 -5 -73 -25 -76 l-23 -3 0
170 0 171 75 0 c47 0 87 -6 104 -15z m471 -5 c0 -18 -7 -20 -70 -20 l-70 0 0
-50 0 -50 65 0 c58 0 65 -2 65 -20 0 -16 -8 -19 -62 -22 l-63 -3 -3 -52 -3
-52 73 -3 c65 -3 73 -5 73 -22 0 -18 -8 -20 -75 -21 -131 -3 -120 -18 -120
171 l0 164 95 0 c88 0 95 -1 95 -20z m377 -108 l83 -127 0 128 0 127 25 0 25
0 0 -164 c0 -91 -4 -167 -9 -170 -26 -16 -62 19 -137 136 l-79 123 -5 -130
c-5 -122 -6 -130 -25 -130 -19 0 -20 8 -23 168 l-2 167 32 -1 c31 0 38 -8 115
-127z m592 102 c36 -21 71 -86 71 -130 0 -117 -83 -186 -215 -177 -32 2 -60 5
-61 6 -6 6 -12 316 -6 322 14 15 178 -2 211 -21z m481 6 c0 -18 -7 -20 -70
-20 l-70 0 0 -50 0 -50 65 0 c58 0 65 -2 65 -20 0 -16 -8 -19 -62 -22 l-63 -3
-3 -52 -3 -53 76 0 c73 0 76 -1 73 -22 -3 -22 -7 -23 -98 -23 l-95 0 -3 168
-2 167 95 0 c88 0 95 -1 95 -20z m2008 -11 c3 -26 3 -26 -37 -16 -51 14 -115
-4 -137 -39 -24 -36 -29 -103 -10 -147 24 -59 95 -80 173 -50 11 4 14 0 11
-18 -2 -20 -11 -26 -49 -33 -99 -19 -178 26 -201 116 -18 71 8 148 65 189 38
27 47 30 112 27 67 -3 70 -4 73 -29z m453 8 c45 -30 69 -80 69 -145 0 -65 -22
-115 -64 -145 -44 -31 -152 -32 -193 -1 -60 45 -79 173 -36 246 39 67 156 91
224 45z m444 -111 l80 -129 3 132 3 131 25 0 24 0 -2 -167 -3 -168 -26 -3
c-28 -3 -29 -2 -154 195 l-40 62 -5 -127 c-5 -122 -6 -127 -27 -130 l-23 -3 0
171 0 171 32 -3 c30 -3 39 -14 113 -132z m561 112 c2 -16 -7 -18 -67 -18 l-69
0 0 -50 0 -49 62 -3 c50 -2 63 -7 66 -20 3 -14 -7 -17 -60 -20 l-63 -3 -3 -52
-3 -52 73 -3 c64 -3 73 -5 73 -22 0 -17 -9 -19 -95 -20 l-95 -1 -3 168 -2 168
91 -3 c79 -3 93 -6 95 -20z m924 3 c0 -17 -8 -20 -52 -23 l-53 -3 -5 -145 c-5
-137 -6 -145 -25 -145 -19 0 -20 8 -23 148 l-3 147 -49 0 c-35 0 -50 4 -50 13
0 25 12 27 137 27 115 0 123 -1 123 -19z m398 -141 c34 -88 62 -164 62 -170 0
-5 -11 -10 -24 -10 -19 0 -27 10 -44 50 l-21 50 -65 0 -64 0 -17 -50 c-14 -42
-21 -50 -41 -50 -13 0 -24 5 -24 10 0 6 25 77 55 158 31 81 58 153 60 160 2 6
17 12 33 12 28 0 31 -5 90 -160z m2042 130 c0 -17 -7 -20 -50 -20 l-50 0 0
-145 0 -145 -25 0 -25 0 0 145 0 145 -45 0 c-38 0 -45 3 -45 20 0 19 7 20 120
20 113 0 120 -1 120 -20z m376 -13 c33 -38 31 -81 -4 -117 -25 -25 -27 -30
-14 -46 13 -18 62 -119 62 -129 0 -3 -11 -5 -25 -5 -21 0 -30 11 -56 65 -22
47 -37 67 -54 71 -42 11 -49 2 -50 -67 0 -59 -2 -64 -22 -67 -23 -3 -23 -2
-25 130 -1 73 -2 144 -3 158 -1 14 0 29 3 34 2 4 40 6 84 4 73 -3 82 -6 104
-31z m431 -82 c24 -60 52 -134 63 -162 l20 -53 -28 0 c-24 0 -30 6 -42 43
l-15 42 -66 3 -66 3 -17 -46 c-14 -36 -22 -45 -42 -45 -13 0 -24 5 -24 10 0 6
28 80 61 166 59 148 63 155 87 152 23 -3 31 -15 69 -113z m408 -12 l80 -127 3
128 c3 125 3 127 25 124 22 -3 22 -6 25 -166 l3 -163 -32 3 c-28 3 -39 15
-108 125 l-76 123 -5 -123 c-5 -117 -6 -122 -27 -125 l-23 -3 0 165 0 166 28
0 c24 0 36 -14 107 -127z m519 121 c9 -3 16 -16 16 -29 0 -21 -2 -22 -40 -12
-55 15 -94 1 -98 -36 -3 -25 2 -30 60 -57 75 -33 87 -45 95 -94 5 -30 1 -40
-25 -66 -27 -27 -37 -30 -92 -30 -74 0 -100 12 -93 40 4 15 10 19 22 14 9 -4
36 -9 61 -12 36 -3 49 1 64 16 29 33 12 60 -57 91 -66 30 -81 43 -90 80 -8 31
8 64 41 84 27 16 106 23 136 11z m416 -14 c0 -17 -8 -19 -67 -22 l-68 -3 0
-50 0 -50 63 -3 c54 -3 62 -6 62 -22 0 -18 -7 -20 -65 -20 l-65 0 0 -70 c0
-68 -1 -70 -25 -70 l-25 0 0 158 c0 87 3 162 7 165 3 4 46 7 95 7 81 0 88 -2
88 -20z m411 -3 c19 -12 45 -44 58 -71 23 -45 24 -53 13 -105 -9 -41 -21 -65
-46 -90 -30 -30 -43 -35 -94 -39 -95 -7 -138 25 -163 119 -21 79 19 172 86
200 41 16 111 10 146 -14z m450 -3 c47 -42 47 -103 -2 -131 -25 -15 -27 -19
-15 -33 11 -12 59 -98 75 -133 2 -5 -9 -7 -24 -5 -22 2 -34 14 -57 58 -34 63
-52 80 -85 80 -22 0 -23 -4 -23 -70 0 -68 -1 -70 -25 -70 l-25 0 0 166 0 167
80 -5 c60 -4 85 -9 101 -24z m361 -94 c26 -63 49 -119 50 -124 2 -4 26 47 54
115 46 114 53 124 78 127 16 2 33 -1 38 -6 6 -6 7 -70 2 -166 -6 -143 -8 -156
-25 -156 -14 0 -19 8 -19 28 -3 140 -6 212 -10 212 -3 0 -27 -54 -54 -121 -36
-87 -53 -119 -64 -117 -10 2 -36 52 -66 128 l-51 125 -3 -128 c-3 -124 -3
-128 -23 -125 -20 3 -21 10 -24 158 -1 85 0 159 2 163 3 4 19 7 36 5 31 -3 34
-8 79 -118z m626 18 c22 -57 52 -131 65 -165 l26 -63 -29 0 c-24 0 -31 6 -46
45 l-17 46 -66 -3 -66 -3 -15 -42 c-11 -34 -19 -43 -37 -43 -13 0 -23 4 -23
10 0 9 76 217 104 284 11 27 21 36 39 36 22 0 29 -11 65 -102z"/>
<path d="M8023 8808 c-92 -147 -423 -677 -612 -983 -285 -460 -277 -446 -459
-735 -85 -135 -247 -393 -360 -575 -112 -181 -226 -364 -252 -405 -101 -161
-200 -319 -255 -410 -32 -52 -131 -212 -220 -355 -89 -143 -350 -566 -580
-940 -230 -374 -447 -726 -482 -783 -36 -57 -63 -106 -59 -109 7 -7 6586 -17
6586 -10 0 3 -49 85 -108 184 -60 98 -226 372 -370 608 -143 237 -302 498
-353 580 -51 83 -167 274 -259 425 -165 271 -249 409 -407 665 -44 72 -155
254 -248 405 -92 151 -198 325 -235 385 -37 61 -128 209 -202 330 -74 121
-199 326 -278 455 -127 207 -259 420 -593 960 -49 80 -104 168 -121 195 -18
28 -48 74 -66 103 -18 28 -35 52 -37 52 -1 0 -15 -19 -30 -42z m108 -420 c42
-68 114 -181 159 -253 105 -165 136 -214 362 -580 101 -165 251 -408 332 -540
82 -132 151 -246 154 -253 2 -7 -29 12 -69 42 -41 31 -108 75 -150 98 -73 41
-80 48 -131 133 -62 102 -230 377 -290 475 -22 36 -69 112 -105 170 -35 58
-100 161 -144 230 -43 69 -105 167 -136 218 -32 50 -60 92 -63 92 -6 0 -81
-120 -403 -640 -121 -195 -258 -416 -304 -490 l-84 -135 -79 -45 c-44 -25
-111 -68 -150 -97 -81 -60 -85 -70 58 161 58 94 133 216 167 271 121 198 375
605 430 690 17 28 83 132 146 233 192 308 214 342 219 342 3 0 40 -55 81 -122z
m1279 -2175 c0 -8 -25 -50 -430 -728 -174 -291 -369 -618 -432 -725 -63 -107
-204 -345 -313 -528 l-198 -333 -82 138 c-45 76 -149 251 -230 388 -81 138
-240 405 -353 595 -223 376 -313 527 -445 753 -48 81 -125 212 -172 290 -47
79 -85 147 -85 150 0 4 617 7 1370 7 754 0 1370 -3 1370 -7z m-3091 -503 c-5
-25 -12 -92 -15 -150 -5 -77 -11 -112 -25 -131 -10 -14 -31 -50 -47 -80 -16
-30 -112 -191 -213 -359 -102 -168 -260 -430 -352 -582 -92 -152 -210 -346
-261 -430 -52 -84 -93 -155 -90 -157 2 -2 533 -6 1179 -7 991 -3 1192 -6 1285
-19 141 -19 396 -19 520 0 80 13 280 15 1273 15 819 0 1177 3 1177 10 0 6
-134 234 -299 508 -365 607 -596 993 -637 1066 -28 48 -34 71 -43 173 -7 65
-16 135 -20 156 -9 40 -3 48 15 20 159 -250 356 -569 529 -858 56 -93 160
-264 230 -380 70 -115 189 -311 263 -435 75 -124 160 -263 189 -309 29 -47 53
-89 53 -93 0 -4 -1348 -8 -2996 -8 -2574 0 -2995 2 -2991 14 3 8 61 106 130
218 68 111 178 293 244 403 67 110 137 225 155 255 19 30 79 129 133 220 267
445 613 995 620 988 2 -2 -1 -23 -6 -48z"/>
<path d="M7000 6025 c0 -3 60 -105 133 -227 73 -123 149 -250 169 -283 77
-131 667 -1123 697 -1172 18 -29 36 -53 41 -53 4 0 83 127 176 283 427 717
664 1115 755 1264 55 89 102 169 105 177 6 14 -98 16 -1035 16 -573 0 -1041
-2 -1041 -5z m1837 -149 c2 -2 -46 -83 -105 -182 -60 -98 -238 -395 -396 -659
-158 -264 -290 -481 -294 -482 -4 -2 -79 118 -166 265 -88 147 -172 287 -188
312 -16 25 -122 203 -237 395 l-210 350 62 5 c64 5 1529 1 1534 -4z"/>
<path d="M7530 5715 c0 -2 67 -116 148 -252 82 -136 195 -328 253 -425 57 -98
107 -178 111 -178 4 0 53 78 109 173 102 171 353 592 391 655 l20 32 -516 0
c-284 0 -516 -2 -516 -5z m860 -103 c0 -4 -27 -53 -61 -107 -34 -55 -110 -182
-170 -282 -60 -100 -113 -184 -117 -187 -7 -4 -352 561 -352 577 0 4 158 7
350 7 193 0 350 -4 350 -8z"/>
<path d="M1270 1028 c0 -4 -11 -37 -25 -73 l-24 -65 50 0 c48 0 49 1 43 26 -8
32 -43 122 -44 112z"/>
<path d="M1692 989 c3 -69 0 -67 72 -60 41 3 62 75 31 101 -8 7 -35 15 -61 18
l-45 5 3 -64z"/>
<path d="M2140 995 l0 -55 45 0 c36 0 48 5 61 25 30 46 -5 85 -77 85 -29 0
-29 -1 -29 -55z"/>
<path d="M3549 1048 c0 -2 -2 -59 -3 -127 l-3 -123 60 4 c52 4 64 9 88 36 24
27 28 38 26 90 -2 66 -15 88 -64 109 -27 11 -101 19 -104 11z"/>
<path d="M6510 1038 c-33 -18 -52 -60 -53 -119 -1 -56 22 -95 68 -118 36 -18
98 0 121 34 35 53 27 151 -16 190 -25 22 -89 29 -120 13z"/>
<path d="M8865 968 c-10 -29 -20 -59 -23 -65 -3 -9 10 -13 47 -13 l50 0 -21
58 c-12 31 -25 61 -29 65 -4 5 -15 -15 -24 -45z"/>
<path d="M11256 1003 c-12 -76 -12 -76 45 -71 28 3 55 12 60 19 27 43 -8 89
-67 89 -29 0 -32 -3 -38 -37z"/>
<path d="M11731 952 c-11 -33 -21 -62 -21 -66 0 -3 20 -6 45 -6 29 0 45 4 45
13 0 14 -33 103 -41 112 -4 3 -16 -21 -28 -53z"/>
<path d="M13454 1030 c-50 -20 -76 -111 -51 -173 20 -47 69 -73 121 -63 45 9
67 41 74 104 10 105 -57 167 -144 132z"/>
<path d="M13900 986 l0 -56 36 0 c51 0 74 15 74 49 0 36 -18 51 -70 58 l-40 6
0 -57z"/>
<path d="M14936 975 c-10 -22 -20 -52 -23 -67 -5 -27 -4 -28 41 -28 52 0 53 3
21 75 -7 17 -15 37 -17 45 -3 10 -11 0 -22 -25z"/>
</g>
</svg>
